# xmcd
#
# Track frame offsets:
#	150
#	29477
#	47470
#	75159
#	94306
#	109493
#	131998
#	187487
#	213448
#	247406
#	268457
#	310348
#
# Disc length: 4171 seconds
#
# Revision: 1
# Processed by: cddbd v1.5.2PL0 Copyright (c) Steve Scherf et al.
# Submitted via: audiograbber 1.83.01
#
DISCID=bf10490c
DTITLE=Grateful Dead - 73-09-21 The Spectrum, Philadelphia PA
DYEAR=1900
DGENRE=
TTITLE0=Big Railroad Blues
TTITLE1=Me and My Uncle
TTITLE2=Brown Eyed Women
TTITLE3=Beat IT On Down The Line
TTITLE4=Sugaree
TTITLE5=Big River
TTITLE6=Here Comes Sunshine
TTITLE7=El Paso
TTITLE8=Loose Lucy
TTITLE9=Jack Straw
TTITLE10=Black Peter
TTITLE11=Tuning and Stage Banter
EXTD=
EXTT0=
EXTT1=
EXTT2=
EXTT3=
EXTT4=
EXTT5=
EXTT6=
EXTT7=
EXTT8=
EXTT9=
EXTT10=
EXTT11=
PLAYORDER=
